<svg width="133" height="21" viewBox="0 0 133 21" fill="none" xmlns="http://www.w3.org/2000/svg">
<path d="M16.1668 11.3027L11.5276 19.2483L6.88836 11.3027H16.1668ZM17.4097 10.5926H5.6405L11.5276 20.6536L17.4097 10.5926Z" fill="white"/>
<path d="M24.2327 1.42026L28.8719 9.36578H19.5934L24.2327 1.42026ZM24.2327 0L18.3456 10.061H30.1198L24.2327 0Z" fill="white"/>
<path d="M0 0L4.93613 8.89899L10.3301 0.223456L0 0Z" fill="#4CAF4F"/>
<path d="M11.5278 0.77948L16.7054 9.62882H6.34009L11.5278 0.77948Z" fill="#4CAF4F"/>
<path d="M18.0387 11.5609L23.2214 20.6536H12.6095L17.8777 11.5609H18.0387Z" fill="#4CAF4F"/>
<path d="M19.1608 11.0096L24.2327 19.9633L29.3751 11.0096H19.1608Z" fill="#4CAF4F"/>
<path d="M51.662 1.43622V18.9605H48.4618L40.8377 7.93081H40.7094V18.9605H37.0043V1.43622H40.2558L47.82 12.4573H47.9741V1.43622H51.662Z" fill="white"/>
<path d="M60.6445 19.2172C59.2925 19.2172 58.1288 18.9434 57.1533 18.3957C56.1836 17.8424 55.4363 17.0609 54.9115 16.0512C54.3866 15.0358 54.1242 13.835 54.1242 12.4488C54.1242 11.0968 54.3866 9.91027 54.9115 8.88916C55.4363 7.86806 56.175 7.07228 57.1277 6.50182C58.086 5.93137 59.2098 5.64615 60.499 5.64615C61.3661 5.64615 62.1733 5.78591 62.9206 6.06543C63.6736 6.33925 64.3296 6.75282 64.8886 7.30616C65.4534 7.8595 65.8926 8.55545 66.2064 9.39401C66.5201 10.2269 66.677 11.2023 66.677 12.3204V13.3216H55.5789V11.0626H63.2457C63.2457 10.5378 63.1317 10.0729 62.9035 9.66783C62.6753 9.26281 62.3587 8.94621 61.9537 8.71803C61.5544 8.48414 61.0894 8.3672 60.5589 8.3672C60.0056 8.3672 59.515 8.49555 59.0872 8.75226C58.665 9.00325 58.3342 9.34267 58.0946 9.77051C57.855 10.1926 57.7323 10.6633 57.7266 11.1824V13.3301C57.7266 13.9804 57.8464 14.5423 58.086 15.0158C58.3313 15.4893 58.6764 15.8544 59.1214 16.1111C59.5663 16.3678 60.094 16.4961 60.7044 16.4961C61.1094 16.4961 61.4802 16.4391 61.8168 16.325C62.1533 16.2109 62.4414 16.0398 62.681 15.8116C62.9206 15.5834 63.1031 15.3039 63.2286 14.973L66.6 15.1955C66.4289 16.0055 66.078 16.7129 65.5475 17.3176C65.0227 17.9166 64.3439 18.3843 63.511 18.7209C62.6838 19.0518 61.7283 19.2172 60.6445 19.2172Z" fill="white"/>
<path d="M71.8667 5.81728L74.2797 10.4123L76.7526 5.81728H80.4919L76.6842 12.3889L80.5946 18.9605H76.8724L74.2797 14.4168L71.7298 18.9605H67.9648L71.8667 12.3889L68.1017 5.81728H71.8667Z" fill="white"/>
<path d="M88.1245 19.2172C86.7783 19.2172 85.6203 18.932 84.6505 18.3615C83.6864 17.7854 82.9449 16.9867 82.4257 15.9656C81.9123 14.9445 81.6556 13.7694 81.6556 12.4402C81.6556 11.094 81.9152 9.91313 82.4343 8.89772C82.9591 7.87661 83.7036 7.08083 84.6676 6.51038C85.6317 5.93423 86.7783 5.64615 88.1074 5.64615C89.254 5.64615 90.258 5.85436 91.1194 6.27079C91.9808 6.68722 92.6625 7.27193 93.1645 8.02493C93.6665 8.77793 93.9432 9.66213 93.9945 10.6775H90.5547C90.4577 10.0215 90.201 9.49384 89.7846 9.09453C89.3738 8.68951 88.8348 8.487 88.1673 8.487C87.6026 8.487 87.1091 8.64102 86.687 8.94906C86.2706 9.2514 85.9454 9.6935 85.7115 10.2754C85.4777 10.8572 85.3607 11.5617 85.3607 12.3889C85.3607 13.2274 85.4748 13.9405 85.703 14.5281C85.9369 15.1156 86.2649 15.5634 86.687 15.8715C87.1091 16.1795 87.6026 16.3336 88.1673 16.3336C88.5838 16.3336 88.9574 16.248 89.2883 16.0768C89.6248 15.9057 89.9015 15.6576 90.1183 15.3324C90.3408 15.0015 90.4862 14.6051 90.5547 14.143H93.9945C93.9374 15.147 93.6636 16.0312 93.173 16.7956C92.6882 17.5543 92.0179 18.1476 91.1622 18.5754C90.3065 19.0033 89.294 19.2172 88.1245 19.2172Z" fill="white"/>
<path d="M102.318 19.2172C100.966 19.2172 99.8024 18.9434 98.8269 18.3957C97.8572 17.8424 97.1099 17.0609 96.5851 16.0512C96.0602 15.0358 95.7978 13.835 95.7978 12.4488C95.7978 11.0968 96.0602 9.91027 96.5851 8.88916C97.1099 7.86806 97.8486 7.07228 98.8013 6.50182C99.7596 5.93137 100.883 5.64615 102.173 5.64615C103.04 5.64615 103.847 5.78591 104.594 6.06543C105.347 6.33925 106.003 6.75282 106.562 7.30616C107.127 7.8595 107.566 8.55545 107.88 9.39401C108.194 10.2269 108.351 11.2023 108.351 12.3204V13.3216H97.2525V11.0626H104.919C104.919 10.5378 104.805 10.0729 104.577 9.66783C104.349 9.26281 104.032 8.94621 103.627 8.71803C103.228 8.48414 102.763 8.3672 102.233 8.3672C101.679 8.3672 101.189 8.49555 100.761 8.75226C100.339 9.00325 100.008 9.34267 99.7682 9.77051C99.5286 10.1926 99.4059 10.6633 99.4002 11.1824V13.3301C99.4002 13.9804 99.52 14.5423 99.7596 15.0158C100.005 15.4893 100.35 15.8544 100.795 16.1111C101.24 16.3678 101.768 16.4961 102.378 16.4961C102.783 16.4961 103.154 16.4391 103.49 16.325C103.827 16.2109 104.115 16.0398 104.355 15.8116C104.594 15.5834 104.777 15.3039 104.902 14.973L108.274 15.1955C108.102 16.0055 107.752 16.7129 107.221 17.3176C106.696 17.9166 106.017 18.3843 105.185 18.7209C104.357 19.0518 103.402 19.2172 102.318 19.2172Z" fill="white"/>
<path d="M114.375 11.3621V18.9605H110.729V5.81728H114.203V8.13617H114.357C114.648 7.37176 115.136 6.76709 115.821 6.32213C116.505 5.87148 117.335 5.64615 118.311 5.64615C119.223 5.64615 120.019 5.84581 120.698 6.24512C121.377 6.64444 121.905 7.21489 122.281 7.95648C122.658 8.69236 122.846 9.57085 122.846 10.592V18.9605H119.201V11.2423C119.206 10.4379 119.001 9.81044 118.585 9.35979C118.168 8.90343 117.595 8.67525 116.865 8.67525C116.374 8.67525 115.94 8.78078 115.564 8.99185C115.193 9.20291 114.902 9.51096 114.691 9.91598C114.486 10.3153 114.38 10.7973 114.375 11.3621Z" fill="white"/>
<path d="M132.71 5.81728V8.55545H124.795V5.81728H132.71ZM126.591 2.66839H130.237V14.9217C130.237 15.2583 130.288 15.5207 130.391 15.7089C130.493 15.8915 130.636 16.0198 130.819 16.094C131.007 16.1681 131.224 16.2052 131.469 16.2052C131.64 16.2052 131.811 16.1909 131.982 16.1624C132.153 16.1282 132.285 16.1025 132.376 16.0854L132.949 18.7979C132.767 18.8549 132.51 18.9205 132.179 18.9947C131.848 19.0746 131.446 19.1231 130.973 19.1402C130.094 19.1744 129.324 19.0575 128.662 18.7893C128.006 18.5212 127.496 18.1048 127.131 17.5401C126.765 16.9753 126.586 16.2622 126.591 15.4009V2.66839Z" fill="white"/>
</svg>
